<svg width="9" height="8" viewBox="0 0 9 8" fill="none" xmlns="http://www.w3.org/2000/svg">
<path fill-rule="evenodd" clip-rule="evenodd" d="M4.49057 2.15606e-08C4.57922 -1.92689e-05 4.66636 0.0129063 4.74887 0.0375884C5.09215 0.12672 5.34313 0.410377 5.34313 0.746514V3.05395H8.14738C8.24454 3.05289 8.34019 3.06746 8.43002 3.0961C8.5554 3.1314 8.67055 3.19381 8.76469 3.27907C8.91776 3.41767 9.00253 3.60547 8.99994 3.8004C9.00005 4.20144 8.64254 4.52919 8.19477 4.53845H8.1379H0.852683C0.782582 4.537 0.714667 4.52784 0.649931 4.51192C0.280372 4.43746 0.00442835 4.14377 5.51306e-05 3.79191C-0.00247617 3.59698 0.0822518 3.40919 0.235315 3.27058C0.388377 3.13189 0.597054 3.05386 0.814789 3.05395H3.65686V0.738035C3.66709 0.330977 4.0359 0.00447541 4.49057 2.15606e-08ZM3.67581 7.23603V6.38773V5.33843C3.68325 5.14263 3.77728 4.95753 3.93713 4.82385C4.09709 4.69017 4.30982 4.61899 4.52848 4.62583C4.7479 4.63018 4.95622 4.7137 5.10605 4.85742C5.25577 5.00113 5.33451 5.19288 5.32417 5.38926V7.28695C5.31685 7.48275 5.22281 7.66785 5.06286 7.80153C4.9029 7.93512 4.69027 8.0064 4.47161 7.99955C4.01856 7.98122 3.66504 7.642 3.67581 7.23603Z" fill="white"/>
</svg>
