<svg width="18" height="15" viewBox="0 0 18 15" fill="none" xmlns="http://www.w3.org/2000/svg">
<path fill-rule="evenodd" clip-rule="evenodd" d="M17.2844 8.324C17.6877 8.2728 18 7.9233 18 7.5002C18 7.0418 17.6335 6.6698 17.1818 6.6698H2.79927L7.9953 1.41866L8.0688 1.33385C8.3138 1.00912 8.2895 0.542358 7.9975 0.243988C7.6789 -0.0804021 7.1607 -0.0815122 6.84109 0.241768L0.24109 6.9123L0.16831 6.9958C0.0575799 7.1419 0 7.3203 0 7.5002C0 7.6076 0.02073 7.715 0.06218 7.8168C0.18873 8.1279 0.48655 8.3305 0.81818 8.3305H17.1818L17.2844 8.324ZM7.9976 14.756C8.3161 14.4305 8.3161 13.9046 7.9954 13.5813L4.35502 9.9023L4.27097 9.828C3.94949 9.5804 3.49065 9.6062 3.19865 9.9045C3.03938 10.0673 2.95975 10.2787 2.95975 10.4902C2.95975 10.7039 3.03938 10.9165 3.20084 11.0792L6.84011 14.7582L6.92417 14.8323C7.2458 15.0791 7.7056 15.0534 7.9976 14.756Z" fill="#071529"/>
</svg>
