<svg width="19" height="18" viewBox="0 0 19 18" fill="none" xmlns="http://www.w3.org/2000/svg">
<path fill-rule="evenodd" clip-rule="evenodd" d="M14.7437 0.286587C15.5068 0.525398 16.2131 0.916463 16.8198 1.43601C17.4266 1.95555 17.921 2.59272 18.2731 3.30877C19.1159 5.07686 19.2305 7.10388 18.5923 8.95523C18.0081 10.6532 17.0449 12.1968 15.7755 13.4696C14.9469 14.3189 14.0527 15.102 13.1011 15.8115L13.0508 15.8542C12.9757 15.9045 12.8914 15.9397 12.8027 15.9575C12.714 15.9753 12.6227 15.9756 12.5339 15.9581C12.4451 15.9407 12.3606 15.906 12.2853 15.856C12.21 15.8059 12.1454 15.7416 12.095 15.6666C12.041 15.5907 12.0025 15.5049 11.9817 15.4142C11.9609 15.3235 11.9583 15.2295 11.9739 15.1378C11.9895 15.046 12.0231 14.9582 12.0727 14.8794C12.1224 14.8006 12.1871 14.7323 12.2632 14.6784C13.156 14.0075 13.9966 13.2703 14.7779 12.4729C15.9082 11.3615 16.7685 10.0069 17.2927 8.5128C17.7997 7.01841 17.6974 5.38512 17.0077 3.96531C16.7365 3.41694 16.3568 2.92899 15.8915 2.53089C15.4262 2.13278 14.8848 1.83277 14.3001 1.64894C13.5609 1.41448 12.7758 1.36252 12.0121 1.49751C11.2484 1.6325 10.529 1.95041 9.91567 2.42391C9.79512 2.51504 9.64799 2.56437 9.49671 2.56437C9.34543 2.56437 9.1983 2.51504 9.07774 2.42391C8.4648 1.94975 7.74537 1.63143 6.98153 1.49642C6.21769 1.36141 5.43238 1.41375 4.69335 1.64894C4.1048 1.82877 3.55908 2.1261 3.08937 2.52285C2.61966 2.91959 2.23578 3.40746 1.96106 3.95679C1.28671 5.37528 1.19033 6.99931 1.6922 8.48722C2.21888 9.97787 3.07921 11.3293 4.20788 12.4388C5.86636 14.0553 7.6994 15.4835 9.67341 16.6973C9.92422 16.8735 10.0344 17.1938 9.94702 17.4903C9.90569 17.6341 9.8195 17.761 9.70095 17.8527C9.5824 17.9443 9.43765 17.9959 9.2877 18C9.15021 18.0005 9.01589 17.9588 8.90294 17.8806C6.84639 16.6167 4.93713 15.1287 3.21035 13.444C1.93419 12.1755 0.967789 10.6312 0.385909 8.9306C-0.230701 7.0822 -0.104702 5.0674 0.73742 3.30972C1.0894 2.59349 1.5838 1.95614 2.19053 1.43643C2.79727 0.916718 3.50368 0.525507 4.26679 0.286587C5.1381 0.0132775 6.05899 -0.0658477 6.96434 0.0548042C7.8697 0.175456 8.73743 0.49294 9.50621 0.984816C10.275 0.49294 11.1427 0.175456 12.0481 0.0548042C12.9534 -0.0658477 13.8743 0.0132775 14.7456 0.286587H14.7437ZM14.0569 6.80939C14.0418 6.42809 13.9099 6.06054 13.6791 5.75618C13.4483 5.45182 13.1296 5.22525 12.7658 5.10692C12.6314 5.02043 12.5295 4.892 12.4761 4.74169C12.4226 4.59138 12.4206 4.42765 12.4703 4.27606C12.5178 4.12512 12.6151 3.99462 12.7463 3.90572C12.8776 3.81681 13.0351 3.77472 13.1933 3.78626C13.8091 3.98776 14.3516 4.36601 14.7528 4.87361C15.154 5.38122 15.3961 5.99561 15.4487 6.63981C15.4721 6.82457 15.4216 7.01111 15.3081 7.15898C15.2524 7.23161 15.1827 7.29236 15.1031 7.3376C15.0234 7.38285 14.9355 7.41167 14.8444 7.42235C14.6585 7.44511 14.4711 7.39334 14.3234 7.2784C14.1758 7.16347 14.0799 6.99478 14.0569 6.80939Z" fill="#071529"/>
</svg>
