<svg width="14" height="14" viewBox="0 0 14 14" fill="none" xmlns="http://www.w3.org/2000/svg">
<path fill-rule="evenodd" clip-rule="evenodd" d="M4.71091 11.0761C4.71091 11.3858 4.9531 11.638 5.2513 11.638C5.54949 11.638 5.79166 11.3858 5.79166 11.0761V8.28758C5.79166 8.14471 5.73986 8.00765 5.64536 7.90272L1.19138 2.95032C1.12068 2.8716 1.08078 2.76738 1.08078 2.65951V1.55168C1.08078 1.31773 1.26487 1.12605 1.49027 1.12605H3.65253C3.95072 1.12605 4.19292 0.873873 4.19292 0.563388C4.19292 0.252903 3.95072 0 3.65253 0H1.49027C0.668486 0 0 0.696038 0 1.55168V2.65951C0 3.05527 0.1428 3.43134 0.402493 3.72069L4.71091 8.50983V11.0761ZM4.82248 13.6784C4.91418 13.881 5.10948 14 5.31317 14C5.38947 14 5.46717 13.9834 5.54067 13.9481L8.56534 12.4988C8.75497 12.4079 8.87747 12.2118 8.87747 11.9948V8.43206L13.5527 3.70272C13.8369 3.41646 14 3.017 14 2.60744V1.53525C14 0.688737 13.3308 0.000140023 12.509 0.000140023H6.27984C5.98164 0.000140023 5.73944 0.250341 5.73944 0.556787C5.73944 0.864675 5.98164 1.11415 6.27984 1.11415H12.509C12.7351 1.11415 12.9185 1.30379 12.9185 1.53525V2.60744C12.9185 2.71921 12.8744 2.8288 12.796 2.9074L7.95844 7.80185C7.85484 7.90643 7.79604 8.04993 7.79604 8.19917V11.6393L5.08498 12.9379C4.81408 13.0677 4.69719 13.3986 4.82248 13.6784Z" fill="#071529"/>
</svg>
