<svg width="18" height="18" viewBox="0 0 18 18" fill="none" xmlns="http://www.w3.org/2000/svg">
<path fill-rule="evenodd" clip-rule="evenodd" d="M16.0152 5.06861C16.3344 5.32513 16.5927 5.64924 16.7716 6.01761C16.9504 6.38598 17.0454 6.78943 17.0495 7.19889L17.0404 14.4335C17.0404 15.3771 16.6657 16.282 15.9985 16.9493C15.3314 17.6166 14.4266 17.9916 13.483 17.9918H11.9044C10.9535 17.9918 10.1814 17.2225 10.1769 16.2716V13.0055C10.1769 12.8842 10.1287 12.7679 10.043 12.6821C9.95722 12.5964 9.84091 12.5482 9.71964 12.5482H7.35255C7.29181 12.5482 7.23168 12.5603 7.17566 12.5838C7.11964 12.6072 7.06887 12.6417 7.0263 12.685C6.98373 12.7283 6.95022 12.7797 6.92772 12.8361C6.90523 12.8925 6.8942 12.9529 6.89529 13.0136V14.2602C6.88871 14.4441 6.81104 14.6183 6.67862 14.7461C6.54619 14.8738 6.36936 14.9452 6.18535 14.9452C6.00133 14.9452 5.8245 14.8738 5.69208 14.7461C5.55965 14.6183 5.48198 14.4441 5.4754 14.2602V13.0136C5.4754 12.5136 5.67403 12.0341 6.0276 11.6805C6.38117 11.3269 6.8607 11.1283 7.36072 11.1283H9.7278C10.2266 11.1302 10.7042 11.3297 11.0562 11.6831C11.4082 12.0364 11.6059 12.5149 11.6059 13.0136V16.2716C11.6059 16.4377 11.7392 16.571 11.9053 16.571H13.522C14.0869 16.571 14.6286 16.3467 15.028 15.9474C15.4275 15.5481 15.6521 15.0065 15.6523 14.4417V7.21522C15.6494 7.01764 15.6027 6.82316 15.5154 6.64586C15.4282 6.46855 15.3026 6.31285 15.1479 6.19L9.69605 1.84234C9.36272 1.56783 8.94433 1.41772 8.51251 1.41772C8.08069 1.41772 7.6623 1.56783 7.32897 1.84234L5.57793 3.15154C5.4218 3.25321 5.2325 3.29077 5.04939 3.25643C4.86627 3.22209 4.70345 3.11848 4.59477 2.96715C4.4861 2.81583 4.43994 2.62843 4.4659 2.44395C4.49186 2.25946 4.58794 2.09208 4.73416 1.97662L6.4607 0.72186C7.04216 0.254667 7.7657 0 8.5116 0C9.25749 0 9.98104 0.254667 10.5625 0.72186L16.0152 5.06861ZM3.55833 16.5638H7.18743V16.5792C7.37584 16.5792 7.55653 16.6541 7.68976 16.7873C7.82298 16.9205 7.89783 17.1012 7.89783 17.2896C7.89783 17.478 7.82298 17.6587 7.68976 17.7919C7.55653 17.9252 7.37584 18 7.18743 18H3.55833C2.61504 17.9981 1.71094 17.6224 1.04401 16.9553C0.377083 16.2883 0.00167822 15.3841 0 14.4408V7.21522C0.00617669 6.80295 0.105137 6.39736 0.289533 6.02857C0.473929 5.65977 0.739026 5.33725 1.06514 5.08494L1.72019 4.59502C1.86984 4.52445 2.03942 4.50833 2.19968 4.54943C2.35993 4.59053 2.50082 4.68628 2.59803 4.82016C2.69524 4.95404 2.74267 5.11764 2.73215 5.28275C2.72162 5.44787 2.65379 5.60413 2.54037 5.72457L1.90165 6.19817C1.75213 6.32253 1.63161 6.47808 1.54854 6.65393C1.46548 6.82977 1.42188 7.02166 1.42079 7.21613V14.4344C1.42485 14.9994 1.65159 15.54 2.05178 15.9388C2.45198 16.3377 2.99333 16.5616 3.55833 16.5638Z" fill="#071529"/>
</svg>
