<svg width="15" height="18" viewBox="0 0 15 18" fill="none" xmlns="http://www.w3.org/2000/svg">
<path fill-rule="evenodd" clip-rule="evenodd" d="M3.6522 4.8186C3.6522 2.8746 5.2434 1.2933 7.2 1.2933C9.1566 1.2933 10.7478 2.8746 10.7478 4.8186C10.7478 6.7617 9.1566 8.343 7.2 8.343C5.2434 8.343 3.6522 6.7617 3.6522 4.8186ZM2.3508 4.8186C2.3508 7.4736 4.5261 9.6363 7.2 9.6363C9.873 9.6363 12.0483 7.4745 12.0483 4.8186C12.0483 2.1618 9.873 0 7.2 0C4.527 0 2.3508 2.1618 2.3508 4.8186ZM6.2802 17.9865C6.5817 17.9955 6.8886 18 7.2 18C10.2906 18 14.4 17.6571 14.4 14.697C14.4 11.376 8.9802 11.376 7.2 11.376C4.1094 11.376 0 11.718 0 14.679C0 15.5655 0.414 16.7616 2.3913 17.4267C2.7324 17.5437 3.1005 17.3592 3.2157 17.0217C3.24291 16.9412 3.25395 16.8562 3.24816 16.7714C3.24238 16.6867 3.2199 16.6039 3.18201 16.5279C3.14412 16.4518 3.09157 16.384 3.02738 16.3284C2.96319 16.2727 2.88864 16.2303 2.808 16.2036C1.4562 15.7482 1.3005 15.1155 1.3005 14.679C1.3005 13.3443 3.2859 12.6675 7.2 12.6675C11.115 12.6675 13.0995 13.3515 13.0995 14.697C13.0995 16.0308 11.1141 16.7067 7.2 16.7067C6.9012 16.7067 6.606 16.7031 6.3171 16.695C5.9697 16.6977 5.6601 16.9659 5.6493 17.3223C5.64679 17.4073 5.66111 17.4921 5.69146 17.5715C5.72181 17.651 5.76757 17.7237 5.82613 17.7855C5.88468 17.8472 5.95486 17.8967 6.03264 17.9312C6.11041 17.9657 6.19424 17.9845 6.2793 17.9865H6.2802Z" fill="#071529"/>
</svg>
