<svg width="22" height="18" viewBox="0 0 22 18" fill="none" xmlns="http://www.w3.org/2000/svg">
<path fill-rule="evenodd" clip-rule="evenodd" d="M3.347 5.762C3.34463 5.96198 3.2631 6.15288 3.12029 6.29288C2.97747 6.43289 2.78499 6.5106 2.585 6.509C2.3851 6.5106 2.19273 6.43286 2.05007 6.29282C1.90741 6.15279 1.82611 5.96189 1.824 5.762V3.902C1.824 1.753 3.607 0.00199993 5.798 0.000999928L7.427 0C7.847 0 8.189 0.334 8.189 0.747C8.189 1.159 7.849 1.493 7.428 1.493L5.8 1.494C4.447 1.496 3.347 2.576 3.347 3.903V5.762ZM14.6 1.493H16.193C17.55 1.493 18.653 2.576 18.653 3.906V5.763C18.653 6.173 18.995 6.509 19.415 6.509C19.835 6.509 20.175 6.174 20.175 5.763V3.906C20.175 1.752 18.39 0.000999928 16.193 0.000999928H14.6C14.501 -5.5833e-05 14.4028 0.0184103 14.311 0.055342C14.2192 0.0922736 14.1355 0.146946 14.0648 0.216233C13.9942 0.285519 13.9378 0.36806 13.8991 0.459134C13.8603 0.550208 13.8399 0.648028 13.839 0.747C13.839 1.159 14.179 1.493 14.599 1.493H14.6ZM21.238 9.041H0.761C0.561103 9.0394 0.368731 9.11714 0.226071 9.25718C0.0834121 9.39721 0.00211178 9.58811 0 9.788C0 10.2 0.342 10.535 0.761 10.535H1.823V14.096C1.823 16.246 3.607 17.997 5.799 17.999L7.427 18C7.62707 18.0019 7.8197 17.9242 7.96257 17.7842C8.10545 17.6441 8.18689 17.4531 8.189 17.253C8.18809 17.154 8.16768 17.0561 8.12893 16.965C8.09019 16.8739 8.03388 16.7912 7.96322 16.7219C7.89255 16.6525 7.80891 16.5977 7.71708 16.5607C7.62525 16.5237 7.52702 16.5051 7.428 16.506H5.8C4.447 16.504 3.346 15.424 3.346 14.096V10.535H18.655V14.093C18.655 15.425 17.551 16.506 16.194 16.506H14.601C14.502 16.5051 14.4038 16.5237 14.3119 16.5607C14.2201 16.5977 14.1364 16.6525 14.0658 16.7219C13.9951 16.7912 13.9388 16.8739 13.9001 16.965C13.8613 17.0561 13.8409 17.154 13.84 17.253C13.84 17.666 14.181 18 14.601 18H16.194C18.39 18 20.177 16.249 20.177 14.093V10.535H21.239C21.659 10.535 22 10.2 22 9.788C21.9991 9.68898 21.9787 9.59111 21.9399 9.49998C21.9012 9.40886 21.8449 9.32625 21.7742 9.25688C21.7036 9.18752 21.6199 9.13275 21.5281 9.09571C21.4362 9.05867 21.338 9.04008 21.239 9.041H21.238ZM9.142 6.51H12.859C13.0591 6.51187 13.2517 6.43424 13.3946 6.29418C13.5375 6.15412 13.6189 5.96307 13.621 5.763C13.62 5.66398 13.5994 5.56614 13.5606 5.47506C13.5217 5.38398 13.4653 5.30145 13.3945 5.23217C13.3238 5.1629 13.24 5.10824 13.1482 5.07132C13.0563 5.0344 12.958 5.01594 12.859 5.017H9.142C8.9422 5.01513 8.74982 5.09265 8.60713 5.23253C8.46444 5.3724 8.38311 5.5632 8.381 5.763C8.381 6.175 8.721 6.51 9.141 6.51H9.142ZM9.142 12.775H12.859C13.279 12.775 13.62 13.109 13.62 13.521C13.6191 13.6199 13.5987 13.7176 13.56 13.8086C13.5213 13.8996 13.4651 13.9821 13.3945 14.0514C13.3239 14.1207 13.2404 14.1754 13.1487 14.2124C13.057 14.2494 12.9589 14.2679 12.86 14.267H9.142C9.04298 14.2681 8.94473 14.2496 8.85284 14.2127C8.76096 14.1758 8.67725 14.1211 8.60649 14.0518C8.53573 13.9826 8.47931 13.9 8.44044 13.8089C8.40158 13.7179 8.38105 13.62 8.38 13.521C8.38 13.109 8.721 12.775 9.142 12.775Z" fill="#FAFAFA"/>
</svg>
