<svg width="14" height="14" viewBox="0 0 14 14" fill="none" xmlns="http://www.w3.org/2000/svg">
<path d="M13.8283 13.0246L11.4218 10.6719L11.3658 10.5858C11.2601 10.4806 11.1171 10.4216 10.9679 10.4216C10.8188 10.4216 10.6757 10.4806 10.57 10.5858C8.52541 12.4618 5.37421 12.564 3.20714 10.8238C1.04007 9.08435 0.529102 6.04288 2.01301 3.71681C3.49692 1.39074 6.51514 0.501755 9.06648 1.63924C11.6178 2.77673 12.9092 5.58859 12.0861 8.20936C12.0572 8.3025 12.0538 8.40167 12.0762 8.49658C12.0986 8.59149 12.146 8.67867 12.2135 8.74905C12.2821 8.82054 12.3681 8.87306 12.463 8.90152C12.5579 8.92997 12.6586 8.93339 12.7553 8.91145C12.8515 8.89035 12.9405 8.84433 13.0134 8.77799C13.0862 8.71164 13.1403 8.62731 13.1703 8.53345C14.1545 5.42409 12.6678 2.07743 9.67054 0.658553C6.67333 -0.759629 3.06645 0.175559 1.18286 2.85933C-0.702123 5.54379 -0.297547 9.17115 2.1348 11.3957C4.56646 13.6203 8.29443 13.7736 10.9088 11.7569L13.0394 13.8394C13.1463 13.9424 13.2889 14 13.4374 14C13.5858 14 13.7284 13.9424 13.8353 13.8394C13.8874 13.7883 13.9289 13.7273 13.9571 13.66C13.9854 13.5927 14 13.5204 14 13.4474C14 13.3744 13.9854 13.3021 13.9571 13.2348C13.9289 13.1675 13.8874 13.1065 13.8353 13.0554L13.8283 13.0253V13.0246Z" fill="#071529"/>
</svg>
